<svg width="200" height="200" viewBox="0 0 200 200" fill="none" xmlns="http://www.w3.org/2000/svg">
<path d="M0 43.3213C0 19.3956 19.3956 0 43.3213 0H156.679C180.604 0 200 19.3956 200 43.3213V156.679C200 180.604 180.604 200 156.679 200H43.3213C19.3956 200 0 180.604 0 156.679V43.3213Z" fill="#121A26"/>
<path d="M44.1658 119.578C35.3345 119.578 28.118 112.225 29.8658 103.568C37.3452 66.5241 66.5243 37.3448 103.568 29.8656C112.225 28.1178 119.579 35.3343 119.579 44.1656C119.579 52.5586 112.86 59.2595 104.796 61.5842C83.9848 67.5831 67.5834 83.9846 61.5844 104.796C59.2597 112.86 52.5588 119.578 44.1658 119.578Z" fill="#8AB4FF"/>
<path d="M74.5959 119.578C69.9288 119.578 66.1213 115.698 66.9695 111.109C71.1036 88.739 88.7393 71.1041 111.109 66.9703C115.698 66.1223 119.578 69.9295 119.578 74.5963C119.578 79.0377 116.031 82.5949 111.724 83.6786C97.9677 87.1396 87.1399 97.9673 83.6787 111.724C82.5949 116.031 79.0375 119.578 74.5959 119.578Z" fill="#8AB4FF"/>
<path d="M104.287 119.578C95.669 119.578 88.48 112.053 92.7794 104.584C95.6005 99.683 99.6833 95.6005 104.584 92.7796C112.053 88.4808 119.579 95.6694 119.579 104.287C119.579 112.732 112.732 119.578 104.287 119.578Z" fill="#8AB4FF"/>
<path d="M170.523 120.114L170.523 96.6819C170.523 88.1304 163.591 81.198 155.039 81.198L140.169 81.198C131.663 81.198 124.75 88.0581 124.685 96.563L124.576 110.736C124.511 119.241 117.598 126.101 109.093 126.101L95.9879 126.101C87.2338 126.101 80.2205 133.353 80.5126 142.102L80.9908 156.425C81.2694 164.77 88.1156 171.392 96.4661 171.392L119.554 171.392C123.684 171.392 127.642 169.742 130.55 166.809L166.035 131.015C168.91 128.115 170.523 124.197 170.523 120.114Z" fill="#2D6DF6"/>
</svg>
