<svg width="200" height="200" viewBox="0 0 200 200" fill="none" xmlns="http://www.w3.org/2000/svg">
<path d="M0 43.3213C0 19.3956 19.3956 0 43.3213 0H156.679C180.604 0 200 19.3956 200 43.3213V156.679C200 180.604 180.604 200 156.679 200H43.3213C19.3956 200 0 180.604 0 156.679V43.3213Z" fill="#121A26"/>
<path d="M44.1665 119.579C35.3352 119.579 28.1187 112.225 29.8666 103.568C37.346 66.5241 66.5258 37.3447 103.57 29.8657C112.227 28.118 119.58 35.3345 119.58 44.1657C119.58 52.5587 112.862 59.2597 104.797 61.5843C83.986 67.5832 67.5842 83.9848 61.5851 104.796C59.2604 112.86 52.5595 119.579 44.1665 119.579Z" fill="#8AB4FF"/>
<path d="M74.5964 119.579C69.9296 119.579 66.1224 115.699 66.9704 111.11C71.1043 88.7396 88.7394 71.1044 111.109 66.9706C115.699 66.1226 119.579 69.9298 119.579 74.5966C119.579 79.0379 116.031 82.5952 111.724 83.6788C97.9677 87.1399 87.1397 97.9678 83.6786 111.724C82.595 116.031 79.0378 119.579 74.5964 119.579Z" fill="#8AB4FF"/>
<path d="M104.288 119.579C95.6703 119.579 88.4817 112.053 92.7808 104.584C95.6017 99.6838 99.6842 95.6014 104.585 92.7804C112.054 88.4813 119.579 95.6698 119.579 104.287C119.579 112.733 112.733 119.579 104.288 119.579Z" fill="#8AB4FF"/>
<path d="M170.523 120.114L170.523 96.6821C170.523 88.1306 163.591 81.1982 155.039 81.1982L140.169 81.1982C131.664 81.1982 124.75 88.0584 124.685 96.5633L124.576 110.737C124.511 119.241 117.598 126.102 109.093 126.102L95.9879 126.102C87.2339 126.102 80.2205 133.353 80.5126 142.102L80.9908 156.425C81.2694 164.771 88.1157 171.392 96.4661 171.392L119.554 171.392C123.684 171.392 127.642 169.742 130.55 166.809L166.035 131.016C168.91 128.116 170.523 124.198 170.523 120.114Z" fill="#2D6DF6"/>
</svg>
