<svg width="200" height="202" viewBox="0 0 200 202" fill="none" xmlns="http://www.w3.org/2000/svg">
<path d="M20.6683 127.698C8.13439 127.697 -2.10764 117.261 0.372977 104.975C10.9882 52.4 52.4019 10.9875 104.977 0.372977C117.263 -2.10742 127.699 8.13437 127.699 20.668C127.699 32.5796 118.164 42.0898 106.719 45.389C77.1824 53.9028 53.9042 77.1806 45.3899 106.717C42.0905 118.162 32.5801 127.698 20.6683 127.698Z" fill="#8AB4FF"/>
<path d="M63.8557 127.698C57.2331 127.698 51.8304 122.191 53.0337 115.679C58.9004 83.9298 83.93 58.9008 115.679 53.0344C122.192 51.8311 127.698 57.2338 127.698 63.8563C127.698 70.1589 122.664 75.2068 116.552 76.7445C97.0264 81.6567 81.6563 97.0263 76.7439 116.552C75.2061 122.664 70.1582 127.698 63.8557 127.698Z" fill="#8AB4FF"/>
<path d="M105.998 127.698C93.7671 127.698 83.5642 117.016 89.666 106.416C93.6698 99.4611 99.4643 93.6671 106.42 89.6638C117.02 83.5631 127.7 93.7653 127.7 105.995C127.7 117.981 117.983 127.698 105.998 127.698Z" fill="#8AB4FF"/>
<path d="M200.001 128.458L200.001 95.2022C200.001 83.0655 190.163 73.2268 178.026 73.2268L156.921 73.2268C144.85 73.2268 135.039 82.963 134.947 95.0335L134.792 115.149C134.699 127.219 124.888 136.955 112.817 136.955L94.2182 136.955C81.7941 136.955 71.8404 147.247 72.255 159.664L72.9337 179.991C73.3291 191.836 83.0456 201.234 94.8968 201.234L127.664 201.234C133.525 201.234 139.143 198.892 143.27 194.73L193.632 143.93C197.712 139.814 200.001 134.253 200.001 128.458Z" fill="#2D6DF6"/>
</svg>
